<?xml version="1.0" encoding="utf-8"?>
<svg height="1000" width="1000" xmlns="http://www.w3.org/2000/svg">
  <title>heart</title>
  <path d="M500.3 255.4c15.800000000000011-28.5 35.49999999999994-52.099999999999994 59.80000000000001-71.9 90.10000000000002-73.4 229.5-66.2 310.69999999999993 16.900000000000006 64.5 65.99999999999997 80.40000000000009 144.4 55.40000000000009 231.9-19.300000000000068 67.69999999999999-56 126.09999999999997-100.60000000000002 179.7-72.20000000000005 86.70000000000005-160 155.10000000000002-254.80000000000007 215.10000000000002-21 13.299999999999955-42.5 25.899999999999977-63.99999999999994 38.299999999999955-3.1999999999999886 1.8000000000000682-9 2.300000000000068-12 0.6000000000000227-109-62.10000000000002-210.90000000000003-133.79999999999995-296.3-226.70000000000005-51.19999999999999-55.69999999999993-93.6-117.19999999999993-118.9-189.19999999999993-20.999999999999993-59.700000000000045-24.999999999999993-119.80000000000001 1.3000000000000114-178.70000000000005 34.19999999999999-76.59999999999997 93.9-123.49999999999997 176.70000000000002-135.09999999999997 104.19999999999999-14.500000000000014 185 25 240 115.5 0.5999999999999659 0.8999999999999773 1.1999999999999886 1.5999999999999943 2.6999999999999886 3.5999999999999943z" style="fill: rgb(210, 210, 210);"/>
  <path d="M 499.488 329.726 C 511.138 308.712 525.663 291.311 543.58 276.713 C 610.012 222.593 712.794 227.901 772.665 289.172 C 820.223 337.836 831.945 395.642 813.512 460.157 C 799.282 510.074 772.223 553.133 739.338 592.653 C 686.104 656.579 621.367 707.011 551.469 751.251 C 535.986 761.057 520.133 770.348 504.281 779.49 C 501.921 780.817 497.644 781.186 495.433 779.933 C 415.065 734.145 339.932 681.279 276.965 612.782 C 239.214 571.714 207.952 526.369 189.298 473.282 C 173.814 429.264 170.865 384.951 190.257 341.522 C 215.473 285.044 259.491 250.464 320.541 241.911 C 397.369 231.22 456.944 260.344 497.498 327.071 C 497.94 327.734 498.383 328.251 499.488 329.726 Z" style="fill: rgb(86, 86, 86);"/>
</svg>